<svg width="150" height="70" viewBox="0 0 150 70" fill="none" xmlns="http://www.w3.org/2000/svg">
<path d="M6.99999 35.5C6.99999 4.59022 19.7299 7.04618 35.4331 7.04618C44.3488 7.04618 52.3062 11.1528 57.5193 17.579L72 35.5L57.5193 53.421C52.3061 59.8472 44.3488 63.9538 35.4331 63.9538C19.7299 63.9538 6.99999 66.4098 6.99999 35.5Z" fill="#0B6FCB"/>
<path d="M145 34C145 64.3675 132.074 61.9546 116.129 61.9546C107.077 61.9546 98.9968 57.9201 93.7035 51.6066L79 34L93.7035 16.3934C98.9968 10.0799 107.077 6.04537 116.129 6.04537C132.074 6.04537 145 3.63249 145 34Z" fill="#133048"/>
<path fill-rule="evenodd" clip-rule="evenodd" d="M87.7195 56.5922L70.05 34.7408L87.7195 12.8894L87.7244 12.8834C94.0731 5.06298 103.79 0.0427009 114.674 0.0427009C115.489 0.0427009 116.368 0.0329168 117.285 0.0227152C119.969 -0.00716546 122.975 -0.0406261 125.647 0.157728C129.402 0.436489 133.794 1.21436 137.816 3.75264C146.435 9.19223 149.372 19.8495 149.372 34.7408C149.372 49.6321 146.435 60.2894 137.816 65.729C133.794 68.2673 129.402 69.0451 125.647 69.3239C122.975 69.5222 119.969 69.4888 117.285 69.4589C116.368 69.4487 115.489 69.4389 114.674 69.4389C103.79 69.4389 94.0731 64.4186 87.7244 56.5982L87.7195 56.5922ZM93.9623 17.9475C98.851 11.9256 106.313 8.07742 114.674 8.07742C115.7 8.07742 116.713 8.06624 117.709 8.05525C131.005 7.9085 141.337 7.79447 141.337 34.7408C141.337 61.6871 131.005 61.5731 117.709 61.4264C116.713 61.4154 115.7 61.4042 114.674 61.4042C106.313 61.4042 98.851 57.556 93.9623 51.5341L80.3829 34.7408L93.9623 17.9475Z" fill="#133048"/>
<path fill-rule="evenodd" clip-rule="evenodd" d="M18.3001 14.1092C20.0751 14.1092 21.514 15.5481 21.514 17.323L21.514 51.7642C21.514 53.5391 20.0751 54.978 18.3001 54.978C16.5251 54.978 15.0862 53.5391 15.0862 51.7642L15.0862 17.323C15.0862 15.5481 16.5251 14.1092 18.3001 14.1092Z" fill="white"/>
<path fill-rule="evenodd" clip-rule="evenodd" d="M51.7246 14.1092C53.4996 14.1092 54.9385 15.5481 54.9385 17.323L54.9385 51.7642C54.9385 53.5391 53.4996 54.978 51.7246 54.978C49.9496 54.978 48.5107 53.5391 48.5107 51.7642L48.5107 17.323C48.5107 15.5481 49.9496 14.1092 51.7246 14.1092Z" fill="white"/>
<path fill-rule="evenodd" clip-rule="evenodd" d="M34.691 14.1092C36.466 14.1092 37.9049 15.5481 37.9049 17.323L37.9049 51.7642C37.9049 53.5391 36.466 54.978 34.691 54.978C32.916 54.978 31.4771 53.5391 31.4771 51.7642L31.4771 17.323C31.4771 15.5481 32.916 14.1092 34.691 14.1092Z" fill="white"/>
<path fill-rule="evenodd" clip-rule="evenodd" d="M10.5397 38.9097C10.5397 37.1116 12.1265 35.654 14.084 35.654H21.4362C23.3937 35.654 24.9805 37.1116 24.9805 38.9097C24.9805 40.7077 23.3937 42.1654 21.4362 42.1654H14.084C12.1265 42.1654 10.5397 40.7077 10.5397 38.9097Z" fill="white"/>
<path fill-rule="evenodd" clip-rule="evenodd" d="M7.32593 38.9097C7.32593 35.0851 10.6141 32.4401 14.0841 32.4401H21.4363C24.9063 32.4401 28.1945 35.0851 28.1945 38.9097C28.1945 42.7342 24.9063 45.3792 21.4363 45.3792H14.0841C10.6141 45.3792 7.32593 42.7342 7.32593 38.9097ZM14.0841 35.654C12.1266 35.654 10.5398 37.1116 10.5398 38.9097C10.5398 40.7077 12.1266 42.1653 14.0841 42.1653H21.4363C23.3938 42.1653 24.9806 40.7077 24.9806 38.9097C24.9806 37.1116 23.3938 35.654 21.4363 35.654H14.0841Z" fill="#0B6FCB"/>
<path fill-rule="evenodd" clip-rule="evenodd" d="M27.6443 27.144C27.6443 25.346 29.2312 23.8884 31.1886 23.8884H38.5409C40.4983 23.8884 42.0852 25.346 42.0852 27.144C42.0852 28.9421 40.4983 30.3997 38.5409 30.3997H31.1886C29.2312 30.3997 27.6443 28.9421 27.6443 27.144Z" fill="white"/>
<path fill-rule="evenodd" clip-rule="evenodd" d="M24.4302 27.144C24.4302 23.3195 27.7184 20.6745 31.1884 20.6745H38.5407C42.0107 20.6745 45.2988 23.3195 45.2988 27.144C45.2988 30.9686 42.0107 33.6136 38.5407 33.6136H31.1884C27.7184 33.6136 24.4302 30.9686 24.4302 27.144ZM31.1884 23.8884C29.231 23.8884 27.6441 25.346 27.6441 27.144C27.6441 28.9421 29.231 30.3997 31.1884 30.3997H38.5407C40.4981 30.3997 42.0849 28.9421 42.0849 27.144C42.0849 25.346 40.4981 23.8884 38.5407 23.8884H31.1884Z" fill="#0B6FCB"/>
<path fill-rule="evenodd" clip-rule="evenodd" d="M44.2342 41.4966C44.2342 39.6985 45.821 38.2409 47.7785 38.2409H55.1307C57.0882 38.2409 58.675 39.6985 58.675 41.4966C58.675 43.2946 57.0882 44.7522 55.1307 44.7522H47.7785C45.821 44.7522 44.2342 43.2946 44.2342 41.4966Z" fill="white"/>
<path fill-rule="evenodd" clip-rule="evenodd" d="M41.0205 41.4966C41.0205 37.672 44.3087 35.027 47.7787 35.027H55.1309C58.6009 35.027 61.8891 37.672 61.8891 41.4966C61.8891 45.3212 58.6009 47.9661 55.1309 47.9661H47.7787C44.3087 47.9661 41.0205 45.3212 41.0205 41.4966ZM47.7787 38.2409C45.8212 38.2409 44.2344 39.6985 44.2344 41.4966C44.2344 43.2946 45.8212 44.7523 47.7787 44.7523H55.1309C57.0884 44.7523 58.6752 43.2946 58.6752 41.4966C58.6752 39.6985 57.0884 38.2409 55.1309 38.2409H47.7787Z" fill="#0B6FCB"/>
<path d="M96.9766 17.9658C96.9766 16.1908 98.4155 14.7519 100.191 14.7519H103.543C105.318 14.7519 106.756 16.1908 106.756 17.9658V21.3179C106.756 23.0929 105.318 24.5318 103.543 24.5318H100.191C98.4155 24.5318 96.9766 23.0929 96.9766 21.3179V17.9658Z" fill="white"/>
<path d="M96.9766 33.4636C96.9766 31.6887 98.4155 30.2498 100.191 30.2498H103.543C105.318 30.2498 106.756 31.6887 106.756 33.4636V36.8157C106.756 38.5907 105.318 40.0296 103.543 40.0296H100.191C98.4155 40.0296 96.9766 38.5907 96.9766 36.8157V33.4636Z" fill="white"/>
<path d="M96.9766 48.4934C96.9766 46.7184 98.4155 45.2795 100.191 45.2795H103.543C105.318 45.2795 106.756 46.7184 106.756 48.4934V51.8455C106.756 53.6205 105.318 55.0594 103.543 55.0594H100.191C98.4155 55.0594 96.9766 53.6205 96.9766 51.8455V48.4934Z" fill="white"/>
<path d="M112.146 17.9658C112.146 16.1908 113.585 14.7519 115.36 14.7519H118.712C120.487 14.7519 121.926 16.1908 121.926 17.9658V21.3179C121.926 23.0929 120.487 24.5318 118.712 24.5318H115.36C113.585 24.5318 112.146 23.0929 112.146 21.3179V17.9658Z" fill="white"/>
<path d="M112.146 33.4636C112.146 31.6887 113.585 30.2498 115.36 30.2498H118.712C120.487 30.2498 121.926 31.6887 121.926 33.4636V36.8157C121.926 38.5907 120.487 40.0296 118.712 40.0296H115.36C113.585 40.0296 112.146 38.5907 112.146 36.8157V33.4636Z" fill="white"/>
<path d="M112.146 48.4934C112.146 46.7184 113.585 45.2795 115.36 45.2795H118.712C120.487 45.2795 121.926 46.7184 121.926 48.4934V51.8455C121.926 53.6205 120.487 55.0594 118.712 55.0594H115.36C113.585 55.0594 112.146 53.6205 112.146 51.8455V48.4934Z" fill="white"/>
<path d="M127.315 17.9658C127.315 16.1908 128.754 14.7519 130.529 14.7519H133.881C135.656 14.7519 137.095 16.1908 137.095 17.9658V21.3179C137.095 23.0929 135.656 24.5318 133.881 24.5318H130.529C128.754 24.5318 127.315 23.0929 127.315 21.3179V17.9658Z" fill="white"/>
<path d="M127.315 33.4636C127.315 31.6887 128.754 30.2498 130.529 30.2498H133.881C135.656 30.2498 137.095 31.6887 137.095 33.4636V36.8157C137.095 38.5907 135.656 40.0296 133.881 40.0296H130.529C128.754 40.0296 127.315 38.5907 127.315 36.8157V33.4636Z" fill="white"/>
<path d="M127.315 48.4934C127.315 46.7184 128.754 45.2795 130.529 45.2795H133.881C135.656 45.2795 137.095 46.7184 137.095 48.4934V51.8455C137.095 53.6205 135.656 55.0594 133.881 55.0594H130.529C128.754 55.0594 127.315 53.6205 127.315 51.8455V48.4934Z" fill="white"/>
<path fill-rule="evenodd" clip-rule="evenodd" d="M62.6525 12.8894L80.322 34.7408L62.6525 56.5922L62.6476 56.5982C56.2988 64.4186 46.5817 69.4389 35.6981 69.4389C34.8827 69.4389 34.0037 69.4487 33.0872 69.4589C30.4027 69.4888 27.3966 69.5222 24.7247 69.3239C20.9697 69.0451 16.5779 68.2673 12.556 65.729C3.9371 60.2894 1.00002 49.6321 1.00002 34.7408C1.00002 19.8496 3.93709 9.19224 12.556 3.75265C16.5779 1.21437 20.9697 0.436501 24.7247 0.157739C27.3966 -0.0406133 30.4027 -0.00715303 33.0872 0.0227273C34.0037 0.0329277 34.8827 0.0427112 35.6981 0.0427113C46.5817 0.0427123 56.2988 5.06298 62.6476 12.8834L62.6525 12.8894ZM56.4096 51.5341C51.521 57.556 44.059 61.4042 35.6981 61.4042C34.6719 61.4042 33.6593 61.4154 32.6632 61.4264C19.3665 61.5731 9.03474 61.6872 9.03474 34.7408C9.03473 7.79448 19.3665 7.9085 32.6633 8.05526C33.6593 8.06625 34.6719 8.07743 35.6981 8.07743C44.059 8.07743 51.521 11.9256 56.4097 17.9475L69.9891 34.7408L56.4096 51.5341Z" fill="#0B6FCB"/>
</svg>
