<svg width="122" height="56" viewBox="0 0 122 56" fill="none" xmlns="http://www.w3.org/2000/svg">
<path d="M60.4386 20.2341C52.9955 9.52195 40.1932 0.14878 27.8375 0.14878C12.5045 0.14878 0 12.6463 0 27.9707C0 43.2951 12.5045 55.7927 27.8375 55.7927C37.6625 55.7927 47.1898 49.6927 54.3352 42.4024C55.5261 41.2122 55.675 39.4268 54.9307 38.0878C53.7398 36.0049 50.9114 35.5585 49.125 37.1951C43.0216 42.9976 34.8341 47.6098 27.8375 47.6098C16.9705 47.6098 8.03864 38.6829 8.03864 27.8219C8.03864 16.961 16.9705 8.03415 27.8375 8.03415C38.5557 8.03415 49.4227 16.0683 56.4193 27.3756L62.225 36.3024C69.8171 46.5683 81.5773 55.6439 93.6352 55.6439C108.968 55.6439 121.473 43.1463 121.473 27.8219C121.473 12.4976 108.968 0 93.6352 0C83.8102 0 74.4318 5.95122 67.2864 13.2415C66.0955 14.4317 65.7977 16.2171 66.6909 17.7049C67.8818 19.7878 70.7102 20.0854 72.3477 18.4488C78.4511 12.6463 86.6386 8.03415 93.6352 8.03415C104.502 8.03415 113.434 16.961 113.434 27.8219C113.434 38.6829 104.502 47.6098 93.6352 47.6098C83.3636 47.6098 72.05 38.6829 66.8398 29.9049L60.4386 20.2341Z" fill="var(--infinite-logo-color,#3BFF7F)"/>
</svg>
