<svg width="50" height="50" viewBox="0 0 56 56" fill="none" xmlns="http://www.w3.org/2000/svg">
<g clip-path="url(#clip0_416_26)">
<circle cx="28" cy="28" r="28" fill="#D9D9D9"/>
<g clip-path="url(#clip1_416_26)">
<path d="M34.3895 30.5508V43.6801C34.4558 44.1799 34.29 44.7131 33.9087 45.063C33.7553 45.2174 33.5731 45.34 33.3726 45.4236C33.172 45.5072 32.957 45.5502 32.7399 45.5502C32.5228 45.5502 32.3078 45.5072 32.1072 45.4236C31.9066 45.34 31.7245 45.2174 31.5711 45.063L28.2387 41.714C28.0579 41.5364 27.9204 41.3191 27.837 41.0792C27.7536 40.8393 27.7265 40.5833 27.7579 40.3311V30.5508H27.7082L18.1587 18.2546C17.8895 17.9072 17.768 17.4669 17.8208 17.0298C17.8736 16.5927 18.0964 16.1944 18.4406 15.9219C18.7556 15.6887 19.1037 15.5554 19.4684 15.5554H42.679C43.0437 15.5554 43.3919 15.6887 43.7069 15.9219C44.051 16.1944 44.2738 16.5927 44.3266 17.0298C44.3794 17.4669 44.2579 17.9072 43.9887 18.2546L34.4392 30.5508H34.3895Z" fill="black"/>
<path fill-rule="evenodd" clip-rule="evenodd" d="M11.563 19.3288C12.2099 18.8112 13.1538 18.9161 13.6714 19.563L24.0001 32.4739V42.9201L28.61 47.991C29.1672 48.604 29.1221 49.5527 28.5091 50.11C27.8961 50.6672 26.9474 50.6221 26.3901 50.0091L21.0001 44.08V33.5262L11.3288 21.4371C10.8112 20.7902 10.9161 19.8463 11.563 19.3288Z" fill="#676767"/>
</g>
</g>
<defs>
<clipPath id="clip0_416_26">
<rect width="56" height="56" fill="white" transform="translate(56) rotate(90)"/>
</clipPath>
<clipPath id="clip1_416_26">
<rect width="34" height="36" fill="white" transform="translate(11 15)"/>
</clipPath>
</defs>
</svg>
