<svg  style="vertical-align:middle" width="30" height="30" viewBox="0 0 56 56" fill="none" xmlns="http://www.w3.org/2000/svg">
<g clip-path="url(#clip0_406_335)">
<circle cx="28" cy="28" r="28" fill="#D9D9D9"/>
<path d="M28.2353 38.8889C29.1125 38.8889 29.8235 38.1924 29.8235 37.3333L29.8235 18.6667C29.8235 17.8076 29.1125 17.1111 28.2353 17.1111C27.3581 17.1111 26.6471 16.4147 26.6471 15.5556C26.6471 14.6964 27.3581 14 28.2353 14L29.8235 14C31.5778 14 33 15.3929 33 17.1111L33 38.8889C33 40.6071 31.5778 42 29.8235 42L28.2353 42C27.3581 42 26.6471 41.3036 26.6471 40.4444C26.6471 39.5853 27.3581 38.8889 28.2353 38.8889ZM10.7647 34.2222C10.7647 35.0813 11.4758 35.7778 12.3529 35.7778L25.0588 35.7778C25.936 35.7778 26.6471 35.0813 26.6471 34.2222C26.6471 33.3631 25.936 32.6667 25.0588 32.6667L12.3529 32.6667C11.4758 32.6667 10.7647 33.3631 10.7647 34.2222ZM6 28C6 28.8591 6.71108 29.5556 7.58823 29.5556L25.0588 29.5556C25.936 29.5556 26.6471 28.8591 26.6471 28C26.6471 27.1409 25.936 26.4444 25.0588 26.4444L7.58823 26.4444C6.71108 26.4444 6 27.1409 6 28ZM6 21.7778C6 22.6369 6.71108 23.3333 7.58823 23.3333L25.0588 23.3333C25.936 23.3333 26.6471 22.6369 26.6471 21.7778C26.6471 20.9187 25.936 20.2222 25.0588 20.2222L7.58823 20.2222C6.71108 20.2222 6 20.9187 6 21.7778Z" fill="black"/>
<path d="M43.4542 21C44.1438 21 44.5856 21.1828 44.7795 21.5484C44.7795 22.2473 44.5856 22.5968 44.1977 22.5968C44.0253 22.5968 43.8717 22.5161 43.737 22.3548C43.6077 22.1882 43.4758 22.0242 43.3411 21.8629C43.2118 21.6962 43.0555 21.6129 42.8724 21.6129C42.5276 21.6129 42.1612 21.9651 41.7733 22.6694C41.3908 23.3629 41.0891 24.3441 40.8682 25.6129V25.6452C40.8682 25.6882 40.8844 25.7097 40.9167 25.7097H42.7754C42.8293 25.7097 42.8562 25.7742 42.8562 25.9032C42.8562 26.0806 42.7969 26.2634 42.6784 26.4516H40.7874C40.7281 26.4516 40.6958 26.4946 40.6904 26.5806L39.8015 31.4032C39.5429 32.8978 39.0877 34.0376 38.4358 34.8226C37.7839 35.6075 37.0754 36 36.3104 36C35.9333 36 35.637 35.9328 35.4215 35.7984C35.206 35.664 35.0659 35.5108 35.0012 35.3387C34.9905 35.0914 35.0497 34.871 35.179 34.6774C35.3083 34.4839 35.47 34.3871 35.6639 34.3871C35.8148 34.3871 35.9467 34.4677 36.0599 34.629C36.1676 34.7957 36.2835 34.9597 36.4074 35.121C36.5259 35.2876 36.6768 35.371 36.8599 35.371C37.0754 35.371 37.2775 35.2446 37.466 34.9919C37.66 34.7446 37.8351 34.4355 37.9913 34.0645C38.1475 33.6935 38.2768 33.3226 38.3792 32.9516C38.4816 32.5806 38.5516 32.2742 38.5893 32.0323L39.5591 26.5645V26.5323C39.5591 26.4785 39.5429 26.4516 39.5106 26.4516H38.46C38.4385 26.4516 38.4277 26.4355 38.4277 26.4032C38.4277 26.3387 38.4681 26.2527 38.5489 26.1452C38.6297 26.0323 38.7294 25.9328 38.8479 25.8468C38.9718 25.7554 39.0903 25.7097 39.2035 25.7097H39.6722C39.7153 25.7097 39.7476 25.6613 39.7692 25.5645C39.9146 24.6828 40.1732 23.8978 40.545 23.2097C40.9221 22.5215 41.3639 21.9812 41.8703 21.5887C42.3821 21.1962 42.9101 21 43.4542 21Z" fill="black"/>
<path d="M45.1836 25.2581C45.6361 25.2581 46.0025 25.7258 46.2826 26.6613L46.622 27.8065L47.5756 26.1774C47.9312 25.5645 48.3838 25.2581 48.9333 25.2581C49.305 25.2581 49.6175 25.3656 49.8707 25.5806C49.9569 25.7473 50 25.8871 50 26C50 26.1613 49.9434 26.2984 49.8303 26.4113C49.7172 26.5242 49.6013 26.5806 49.4828 26.5806C49.3373 26.5806 49.1784 26.4973 49.006 26.3306C48.8336 26.164 48.6693 26.0806 48.5131 26.0806C48.3838 26.0806 48.2383 26.2204 48.0767 26.5L46.8645 28.5645L47.5595 30.8387C47.6672 31.2043 47.8127 31.3871 47.9959 31.3871C48.1575 31.3871 48.3299 31.3038 48.5131 31.1371C48.6962 30.9704 48.8255 30.8172 48.901 30.6774C48.9441 30.6774 48.9979 30.7204 49.0626 30.8065C49.1272 30.8925 49.1596 30.957 49.1596 31C49.138 31.1183 49.0356 31.2876 48.8525 31.5081C48.6747 31.7231 48.4619 31.9194 48.214 32.0968C47.9716 32.2688 47.7373 32.3548 47.511 32.3548C47.0638 32.3548 46.6975 31.8871 46.4119 30.9516L46.0402 29.6935L45.022 31.4516C44.6664 32.0645 44.2138 32.371 43.6643 32.371C43.2926 32.371 42.9801 32.2634 42.7269 32.0484C42.6407 31.8978 42.5976 31.7581 42.5976 31.629C42.5976 31.4677 42.6542 31.3306 42.7673 31.2177C42.8804 31.1048 42.9963 31.0484 43.1148 31.0484C43.2603 31.0484 43.4192 31.1317 43.5916 31.2984C43.764 31.4651 43.9283 31.5484 44.0845 31.5484C44.2138 31.5484 44.3593 31.4086 44.5209 31.129L45.7978 28.9355L45.1351 26.7742C45.0274 26.4086 44.8819 26.2258 44.6987 26.2258C44.5371 26.2258 44.3647 26.3091 44.1815 26.4758C43.9983 26.6425 43.869 26.7957 43.7936 26.9355C43.7505 26.9355 43.6966 26.8925 43.632 26.8065C43.5673 26.7204 43.535 26.6559 43.535 26.6129C43.5566 26.4892 43.6562 26.3199 43.834 26.1048C44.0172 25.8898 44.2327 25.6962 44.4805 25.5242C44.7283 25.3468 44.9627 25.2581 45.1836 25.2581Z" fill="black"/>
</g>
<defs>
<clipPath id="clip0_406_335">
<rect width="56" height="56" fill="white"/>
</clipPath>
</defs>
</svg>
