<svg style="vertical-align:middle" width="30" height="30"  viewBox="0 0 56 56" fill="none" xmlns="http://www.w3.org/2000/svg">
<g clip-path="url(#clip0_406_403)">
<circle cx="28" cy="28" r="28" fill="#D9D9D9"/>
<path d="M42.7778 18.4318C42.7778 17.4779 41.8326 16.7045 40.6667 16.7045L15.3333 16.7045C14.1674 16.7045 13.2222 17.4779 13.2222 18.4318C13.2222 19.3858 12.277 20.1591 11.1111 20.1591C9.94517 20.1591 9 19.3858 9 18.4318L9 16.7045C9 14.7967 10.8904 13.25 13.2222 13.25L42.7778 13.25C45.1096 13.25 47 14.7967 47 16.7045L47 18.4318C47 19.3858 46.0548 20.1591 44.8889 20.1591C43.723 20.1591 42.7778 19.3858 42.7778 18.4318Z" fill="black"/>
<rect x="15.0454" y="40" width="26.7727" height="6.04545" rx="2" fill="black"/>
<rect x="15.0454" y="20.1591" width="6.04545" height="6.04545" rx="2" fill="black"/>
<rect x="41.8182" y="36.0454" width="6.04545" height="6.04545" rx="2" transform="rotate(-180 41.8182 36.0454)" fill="black"/>
<rect x="24" y="20" width="18" height="6" rx="2" fill="black"/>
<rect x="33" y="36" width="18" height="6" rx="2" transform="rotate(-180 33 36)" fill="black"/>
</g>
<defs>
<clipPath id="clip0_406_403">
<rect width="56" height="56" fill="white" transform="translate(56) rotate(90)"/>
</clipPath>
</defs>
</svg>
