<svg style="vertical-align:middle" width="30" height="30" viewBox="0 0 56 56" fill="none" xmlns="http://www.w3.org/2000/svg">
<g clip-path="url(#clip0_406_348)">
<circle cx="28" cy="28" r="28" fill="#D9D9D9"/>
<path fill-rule="evenodd" clip-rule="evenodd" d="M8.99998 19.6428C8.99998 17.7093 10.5873 16.1419 12.5454 16.1419H44.4545C46.4126 16.1419 48 17.7093 48 19.6428V37.1476C48 39.0811 46.4126 40.6485 44.4545 40.6485H12.5454C10.5873 40.6485 8.99998 39.0811 8.99998 37.1476V19.6428ZM44.4545 19.6428H12.5454V37.1476H44.4545V19.6428Z" fill="black"/>
<path d="M19.6364 24.8943C20.6154 24.8943 21.4091 24.1105 21.4091 23.1438C21.4091 22.177 20.6154 21.3933 19.6364 21.3933C18.6573 21.3933 17.8636 22.177 17.8636 23.1438C17.8636 24.1105 18.6573 24.8943 19.6364 24.8943Z" fill="black"/>
<path d="M21.4091 30.1457C22.3881 30.1457 23.1818 29.3619 23.1818 28.3952C23.1818 27.4284 22.3881 26.6447 21.4091 26.6447C20.43 26.6447 19.6364 27.4284 19.6364 28.3952C19.6364 29.3619 20.43 30.1457 21.4091 30.1457Z" fill="black"/>
<path d="M16.0909 30.1457C17.07 30.1457 17.8636 29.3619 17.8636 28.3952C17.8636 27.4284 17.07 26.6447 16.0909 26.6447C15.1119 26.6447 14.3182 27.4284 14.3182 28.3952C14.3182 29.3619 15.1119 30.1457 16.0909 30.1457Z" fill="black"/>
<path d="M24.9545 24.8943C25.9336 24.8943 26.7273 24.1105 26.7273 23.1438C26.7273 22.177 25.9336 21.3933 24.9545 21.3933C23.9755 21.3933 23.1818 22.177 23.1818 23.1438C23.1818 24.1105 23.9755 24.8943 24.9545 24.8943Z" fill="black"/>
<path d="M26.7273 30.1457C27.7063 30.1457 28.5 29.3619 28.5 28.3952C28.5 27.4284 27.7063 26.6447 26.7273 26.6447C25.7482 26.6447 24.9545 27.4284 24.9545 28.3952C24.9545 29.3619 25.7482 30.1457 26.7273 30.1457Z" fill="black"/>
<path d="M30.2727 24.8943C31.2518 24.8943 32.0455 24.1105 32.0455 23.1438C32.0455 22.177 31.2518 21.3933 30.2727 21.3933C29.2937 21.3933 28.5 22.177 28.5 23.1438C28.5 24.1105 29.2937 24.8943 30.2727 24.8943Z" fill="black"/>
<path d="M32.0454 30.1457C33.0245 30.1457 33.8182 29.3619 33.8182 28.3952C33.8182 27.4284 33.0245 26.6447 32.0454 26.6447C31.0664 26.6447 30.2727 27.4284 30.2727 28.3952C30.2727 29.3619 31.0664 30.1457 32.0454 30.1457Z" fill="black"/>
<path d="M35.5909 24.8943C36.57 24.8943 37.3636 24.1105 37.3636 23.1438C37.3636 22.177 36.57 21.3933 35.5909 21.3933C34.6119 21.3933 33.8182 22.177 33.8182 23.1438C33.8182 24.1105 34.6119 24.8943 35.5909 24.8943Z" fill="black"/>
<path d="M37.3636 30.1457C38.3427 30.1457 39.1364 29.3619 39.1364 28.3952C39.1364 27.4284 38.3427 26.6447 37.3636 26.6447C36.3846 26.6447 35.5909 27.4284 35.5909 28.3952C35.5909 29.3619 36.3846 30.1457 37.3636 30.1457Z" fill="black"/>
<path d="M40.9091 24.8943C41.8881 24.8943 42.6818 24.1105 42.6818 23.1438C42.6818 22.177 41.8881 21.3933 40.9091 21.3933C39.93 21.3933 39.1364 22.177 39.1364 23.1438C39.1364 24.1105 39.93 24.8943 40.9091 24.8943Z" fill="black"/>
<path fill-rule="evenodd" clip-rule="evenodd" d="M20.5227 33.6466C20.5227 32.6799 21.3164 31.8961 22.2954 31.8961H34.7045C35.6836 31.8961 36.4773 32.6799 36.4773 33.6466C36.4773 34.6134 35.6836 35.3971 34.7045 35.3971H22.2954C21.3164 35.3971 20.5227 34.6134 20.5227 33.6466Z" fill="black"/>
</g>
<defs>
<clipPath id="clip0_406_348">
<rect width="56" height="56" fill="white"/>
</clipPath>
</defs>
</svg>
