<svg  style="vertical-align:middle" width="30" height="30"  viewBox="0 0 56 56" fill="none" xmlns="http://www.w3.org/2000/svg">
<g clip-path="url(#clip0_406_388)">
<circle cx="28" cy="28" r="28" fill="#D9D9D9"/>
<path d="M38.2034 36.9356C37.4176 36.9356 36.4936 36.8759 35.4785 36.7036C32.1499 36.1334 30.1163 33.5842 30.032 33.4748C29.9814 33.4085 24.5383 26.5201 22.7037 24.4482C21.2165 22.7643 19.1593 22.3366 19.1391 22.3333L19.0615 22.3167C18.242 22.1178 15.7464 21.7433 14.0771 22.4129C12.573 23.0162 12.2627 25.5853 12.2358 25.8339C12.1919 27.0306 12.1852 30.372 12.6404 32.1124C12.9709 33.382 14.5728 33.6207 14.7145 33.6406L14.7786 33.6472C14.8055 33.6505 17.5001 34.0483 19.2436 33.8163C20.4914 33.6505 21.7662 32.7555 22.1136 32.4538L22.2013 32.3842L23.412 31.33C24.0797 30.7499 25.1083 30.8494 25.6445 31.5488C26.1268 32.1754 26.0357 33.0571 25.4388 33.5776L24.0864 34.7577C23.7188 35.066 21.8977 36.508 19.6483 36.803C17.5642 37.0781 14.7077 36.6804 14.3503 36.6306C12.917 36.4682 10.3607 35.5002 9.66934 32.8582C9.00835 30.3157 9.16685 25.8703 9.1736 25.6847L9.17697 25.6317C9.19046 25.4427 9.55468 20.9742 12.917 19.625C15.7532 18.488 19.2436 19.2604 19.7799 19.3896C20.2149 19.4825 22.9533 20.1355 25.0206 22.4759C26.9092 24.6107 32.2308 31.3499 32.4568 31.635C32.4669 31.6483 33.8732 33.3721 36.0046 33.7367C38.3956 34.1477 40.1223 33.7599 40.1392 33.7566L40.2572 33.7334C40.4224 33.7035 41.9906 33.3654 42.5268 31.824C43.1507 30.0339 42.9079 26.719 42.7629 25.5919L42.7528 25.456C42.7528 25.456 42.709 24.6074 42.3076 23.7687C42.021 23.1654 41.6466 22.741 41.1576 22.4858C40.5978 22.1908 40.2774 21.5908 40.355 20.9742C40.4865 19.9234 41.6534 19.33 42.6044 19.8305C44.9449 21.0703 45.734 23.7289 45.8116 25.2803C45.8993 26.0029 46.3545 30.1367 45.4237 32.8019C44.3412 35.9047 41.333 36.5975 40.8035 36.6969C40.5675 36.7467 39.6097 36.9356 38.2034 36.9356Z" fill="black"/>
<path d="M38.1461 21.6239C39.0028 21.6239 39.6974 20.9412 39.6974 20.099C39.6974 19.2569 39.0028 18.5742 38.1461 18.5742C37.2893 18.5742 36.5948 19.2569 36.5948 20.099C36.5948 20.9412 37.2893 21.6239 38.1461 21.6239Z" fill="#676767"/>
<path d="M33.944 22.751C34.689 22.751 35.293 22.1573 35.293 21.425C35.293 20.6927 34.689 20.099 33.944 20.099C33.199 20.099 32.5951 20.6927 32.5951 21.425C32.5951 22.1573 33.199 22.751 33.944 22.751Z" fill="#676767"/>
<path d="M31.0201 25.7543C31.6683 25.7543 32.1937 25.2378 32.1937 24.6007C32.1937 23.9636 31.6683 23.4471 31.0201 23.4471C30.372 23.4471 29.8465 23.9636 29.8465 24.6007C29.8465 25.2378 30.372 25.7543 31.0201 25.7543Z" fill="#676767"/>
</g>
<defs>
<clipPath id="clip0_406_388">
<rect width="56" height="56" fill="white"/>
</clipPath>
</defs>
</svg>
