<svg  style="vertical-align:middle" width="30" height="30" viewBox="0 0 56 56" fill="none" xmlns="http://www.w3.org/2000/svg">
<circle cx="28" cy="28" r="28" fill="#D9D9D9"/>
<path fill-rule="evenodd" clip-rule="evenodd" d="M11 30C11 28.3431 12.3431 27 14 27H41.5C43.1569 27 44.5 28.3431 44.5 30C44.5 31.6569 43.1569 33 41.5 33H14C12.3431 33 11 31.6569 11 30Z" fill="#676767"/>
<path fill-rule="evenodd" clip-rule="evenodd" d="M11 20C11 18.3431 12.3431 17 14 17H41.5C43.1569 17 44.5 18.3431 44.5 20C44.5 21.6569 43.1569 23 41.5 23H14C12.3431 23 11 21.6569 11 20Z" fill="black"/>
<path fill-rule="evenodd" clip-rule="evenodd" d="M33.711 37.482C33.8394 37.7746 33.7795 38.1145 33.5586 38.3472L27.4801 44.7472C27.3269 44.9085 27.1129 45 26.8889 45C26.6649 45 26.4508 44.9085 26.2976 44.7472L20.2192 38.3472C19.9983 38.1145 19.9384 37.7746 20.0668 37.482C20.1952 37.1894 20.4874 37 20.8105 37L32.9673 37C33.2903 37 33.5825 37.1894 33.711 37.482Z" fill="#676767"/>
</svg>
