<svg style="vertical-align:middle" width="30" height="30" viewBox="0 0 56 56" fill="none" xmlns="http://www.w3.org/2000/svg">
<circle cx="28" cy="28" r="28" fill="#D9D9D9"/>
<rect x="12.9687" y="13" width="8.57143" height="8.57143" rx="2" fill="#676767"/>
<rect x="23.683" y="13" width="8.57143" height="8.57143" rx="2" fill="#676767"/>
<rect x="34.3973" y="13" width="8.57143" height="8.57143" rx="2" fill="#676767"/>
<rect x="21.5402" y="32.2857" width="8.57143" height="8.57143" rx="2" transform="rotate(-180 21.5402 32.2857)" fill="#676767"/>
<rect x="32.2544" y="32.2857" width="8.57143" height="8.57143" rx="2" transform="rotate(-180 32.2544 32.2857)" fill="black"/>
<rect x="21.5402" y="43" width="8.57143" height="8.57143" rx="2" transform="rotate(-180 21.5402 43)" fill="#676767"/>
<path fill-rule="evenodd" clip-rule="evenodd" d="M42.9687 30.2181C41.708 29.4888 40.2442 29.0714 38.683 29.0714C37.1218 29.0714 35.658 29.4888 34.3973 30.2182L34.3973 25.7143C34.3973 24.6097 35.2927 23.7143 36.3973 23.7143L40.9687 23.7143C42.0733 23.7143 42.9687 24.6097 42.9687 25.7143L42.9687 30.2181Z" fill="black"/>
<path fill-rule="evenodd" clip-rule="evenodd" d="M30.7134 34.4815C30.566 34.4469 30.4124 34.4286 30.2544 34.4286L25.683 34.4286C24.5784 34.4286 23.683 35.324 23.683 36.4286L23.683 41C23.683 42.1046 24.5784 43 25.683 43L30.2544 43C30.7743 43 31.2478 42.8016 31.6035 42.4765C30.6622 41.1004 30.1116 39.4359 30.1116 37.6428C30.1116 36.5263 30.325 35.4597 30.7134 34.4815Z" fill="black"/>
<path d="M38.8221 31.2143C39.3578 31.2143 39.701 31.3566 39.8517 31.6412C39.8517 32.1853 39.701 32.4573 39.3996 32.4573C39.2657 32.4573 39.1464 32.3945 39.0418 32.269C38.9414 32.1392 38.8388 32.0116 38.7342 31.886C38.6337 31.7563 38.5124 31.6914 38.3701 31.6914C38.1022 31.6914 37.8176 31.9656 37.5163 32.5138C37.2191 33.0537 36.9847 33.8175 36.8131 34.8053V34.8304C36.8131 34.8638 36.8257 34.8806 36.8508 34.8806H38.2947C38.3366 34.8806 38.3575 34.9308 38.3575 35.0313C38.3575 35.1694 38.3115 35.3117 38.2194 35.4582H36.7504C36.7043 35.4582 36.6792 35.4916 36.675 35.5586L35.9845 39.3128C35.7836 40.4763 35.4299 41.3636 34.9235 41.9746C34.4171 42.5857 33.8667 42.8912 33.2724 42.8912C32.9794 42.8912 32.7493 42.8389 32.5818 42.7342C32.4144 42.6296 32.3056 42.5103 32.2554 42.3764C32.247 42.1839 32.2931 42.0123 32.3935 41.8616C32.494 41.7109 32.6195 41.6356 32.7702 41.6356C32.8874 41.6356 32.9899 41.6984 33.0778 41.8239C33.1615 41.9537 33.2515 42.0813 33.3477 42.2069C33.4398 42.3366 33.557 42.4015 33.6993 42.4015C33.8667 42.4015 34.0237 42.3032 34.1702 42.1065C34.3208 41.9139 34.4568 41.6733 34.5782 41.3845C34.6996 41.0957 34.8 40.8069 34.8796 40.5181C34.9591 40.2294 35.0135 39.9908 35.0428 39.8025L35.7961 35.546V35.5209C35.7961 35.4791 35.7836 35.4582 35.7585 35.4582H34.9423C34.9256 35.4582 34.9172 35.4456 34.9172 35.4205C34.9172 35.3703 34.9486 35.3033 35.0114 35.2196C35.0742 35.1317 35.1516 35.0543 35.2437 34.9873C35.3399 34.9162 35.432 34.8806 35.5199 34.8806H35.884C35.9175 34.8806 35.9426 34.8429 35.9594 34.7676C36.0724 34.0812 36.2732 33.4702 36.562 32.9344C36.855 32.3987 37.1982 31.9781 37.5916 31.6726C37.9892 31.3671 38.3994 31.2143 38.8221 31.2143Z" fill="black"/>
<path d="M40.1655 34.529C40.5171 34.529 40.8017 34.8931 41.0193 35.6214L41.283 36.5128L42.0238 35.2447C42.3 34.7676 42.6516 34.529 43.0785 34.529C43.3673 34.529 43.61 34.6127 43.8067 34.7801C43.8737 34.9099 43.9072 35.0187 43.9072 35.1066C43.9072 35.2322 43.8632 35.3389 43.7753 35.4268C43.6875 35.5147 43.5975 35.5586 43.5054 35.5586C43.3924 35.5586 43.2689 35.4937 43.135 35.364C43.0011 35.2342 42.8734 35.1694 42.752 35.1694C42.6516 35.1694 42.5386 35.2782 42.413 35.4958L41.4714 37.103L42.0113 38.8733C42.095 39.1579 42.208 39.3002 42.3503 39.3002C42.4758 39.3002 42.6097 39.2354 42.752 39.1056C42.8943 38.9759 42.9948 38.8566 43.0534 38.7478C43.0869 38.7478 43.1287 38.7813 43.1789 38.8482C43.2292 38.9152 43.2543 38.9654 43.2543 38.9989C43.2375 39.091 43.158 39.2228 43.0157 39.3944C42.8776 39.5618 42.7123 39.7146 42.5198 39.8527C42.3314 39.9866 42.1494 40.0536 41.9736 40.0536C41.6262 40.0536 41.3416 39.6895 41.1198 38.9612L40.831 37.9819L40.04 39.3505C39.7638 39.8276 39.4122 40.0661 38.9853 40.0661C38.6965 40.0661 38.4538 39.9824 38.2571 39.815C38.1901 39.6978 38.1566 39.589 38.1566 39.4886C38.1566 39.363 38.2006 39.2563 38.2885 39.1684C38.3763 39.0805 38.4663 39.0366 38.5584 39.0366C38.6714 39.0366 38.7949 39.1014 38.9288 39.2312C39.0627 39.3609 39.1904 39.4258 39.3118 39.4258C39.4122 39.4258 39.5252 39.317 39.6508 39.0993L40.6427 37.3918L40.1279 35.7093C40.0442 35.4247 39.9312 35.2824 39.7889 35.2824C39.6633 35.2824 39.5294 35.3472 39.3871 35.477C39.2448 35.6067 39.1443 35.726 39.0857 35.8348C39.0523 35.8348 39.0104 35.8013 38.9602 35.7344C38.91 35.6674 38.8849 35.6172 38.8849 35.5837C38.9016 35.4875 38.979 35.3556 39.1171 35.1882C39.2594 35.0208 39.4268 34.8701 39.6194 34.7362C39.8119 34.5981 39.994 34.529 40.1655 34.529Z" fill="black"/>
</svg>
