<svg width="30" height="30" style="vertical-align: middle" viewBox="0 0 56 56" fill="none" xmlns="http://www.w3.org/2000/svg">
<g clip-path="url(#clip0_406_332)">
<circle cx="28" cy="28" r="28" fill="#D9D9D9"/>
<path d="M18.7647 17.1111C17.8875 17.1111 17.1765 17.8076 17.1765 18.6667V37.3333C17.1765 38.1924 17.8875 38.8889 18.7647 38.8889V38.8889C19.6419 38.8889 20.3529 39.5853 20.3529 40.4444V40.4444C20.3529 41.3036 19.6419 42 18.7647 42H17.1765C15.4222 42 14 40.6071 14 38.8889V17.1111C14 15.3929 15.4222 14 17.1765 14H18.7647C19.6419 14 20.3529 14.6964 20.3529 15.5556V15.5556C20.3529 16.4147 19.6419 17.1111 18.7647 17.1111V17.1111ZM41 21.7778C41 20.9187 40.2889 20.2222 39.4118 20.2222H21.9412C21.064 20.2222 20.3529 20.9187 20.3529 21.7778V21.7778C20.3529 22.6369 21.064 23.3333 21.9412 23.3333H39.4118C40.2889 23.3333 41 22.6369 41 21.7778V21.7778ZM41 28C41 27.1409 40.2889 26.4444 39.4118 26.4444H21.9412C21.064 26.4444 20.3529 27.1409 20.3529 28V28C20.3529 28.8591 21.064 29.5556 21.9412 29.5556H39.4118C40.2889 29.5556 41 28.8591 41 28V28ZM41 34.2222C41 33.3631 40.2889 32.6667 39.4118 32.6667H25.9118C25.0346 32.6667 24.3235 33.3631 24.3235 34.2222V34.2222C24.3235 35.0813 25.0346 35.7778 25.9118 35.7778H39.4118C40.2889 35.7778 41 35.0813 41 34.2222V34.2222Z" fill="black"/>
</g>
<defs>
<clipPath id="clip0_406_332">
<rect width="56" height="56" fill="white"/>
</clipPath>
</defs>
</svg>
