<svg style="vertical-align:middle" width="30" height="30" viewBox="0 0 56 56" fill="none" xmlns="http://www.w3.org/2000/svg">
<g clip-path="url(#clip0_406_315)">
<circle cx="28" cy="28" r="28" fill="#D9D9D9"/>
<path fill-rule="evenodd" clip-rule="evenodd" d="M35.9793 11.814C36.841 11.814 37.5395 12.5125 37.5395 13.3741V40.3353C37.5395 41.1969 36.841 41.8954 35.9793 41.8954C35.1177 41.8954 34.4192 41.1969 34.4192 40.3353V13.3741C34.4192 12.5125 35.1177 11.814 35.9793 11.814Z" fill="black"/>
<path fill-rule="evenodd" clip-rule="evenodd" d="M16.1851 31.3157C15.3234 31.3157 14.6249 30.6172 14.6249 29.7556C14.6249 28.894 15.3234 28.1955 16.1851 28.1955H27.1061C27.7371 28.1955 28.306 28.5756 28.5474 29.1586C28.7889 29.7416 28.6554 30.4126 28.2092 30.8588L19.9516 39.1165H27.1061C27.9677 39.1165 28.6662 39.815 28.6662 40.6766C28.6662 41.5382 27.9677 42.2367 27.1061 42.2367H16.1851C15.554 42.2367 14.9852 41.8566 14.7437 41.2736C14.5022 40.6907 14.6357 40.0196 15.0819 39.5734L23.3395 31.3157H16.1851Z" fill="black"/>
<path fill-rule="evenodd" clip-rule="evenodd" d="M21.8554 11.8141C22.4463 11.8223 22.9819 12.1636 23.2388 12.6958L28.511 23.6168C28.8856 24.3928 28.5603 25.3255 27.7843 25.7001C27.0083 26.0747 26.0756 25.7493 25.701 24.9734L21.7857 16.863L17.5708 25.0119C17.1749 25.7772 16.2336 26.0767 15.4683 25.6808C14.7029 25.285 14.4034 24.3437 14.7993 23.5783L20.4481 12.6573C20.7196 12.1324 21.2644 11.806 21.8554 11.8141Z" fill="black"/>
<path fill-rule="evenodd" clip-rule="evenodd" d="M29.4157 34.1129C30.025 33.5036 31.0128 33.5036 31.6221 34.1129L35.9794 38.4702L40.3367 34.1129C40.946 33.5036 41.9338 33.5036 42.5431 34.1129C43.1523 34.7222 43.1523 35.71 42.5431 36.3193L37.0826 41.7798C36.4733 42.389 35.4855 42.389 34.8762 41.7798L29.4157 36.3193C28.8064 35.71 28.8064 34.7222 29.4157 34.1129Z" fill="black"/>
</g>
<defs>
<clipPath id="clip0_406_315">
<rect width="56" height="56" fill="white"/>
</clipPath>
</defs>
</svg>
