<svg style="vertical-align:middle" width="30" height="30" viewBox="0 0 56 56" fill="none" xmlns="http://www.w3.org/2000/svg">
<g clip-path="url(#clip0_406_369)">
<circle cx="28" cy="28" r="28" fill="#D9D9D9"/>
<path d="M28 45C25.7675 45 23.5569 44.5603 21.4944 43.706C19.4318 42.8516 17.5578 41.5994 15.9792 40.0208C12.7911 36.8327 11 32.5087 11 28C11 23.4913 12.7911 19.1673 15.9792 15.9792C19.1673 12.7911 23.4913 11 28 11C37.35 11 45 17.8 45 26.3C45 29.0052 43.9254 31.5996 42.0125 33.5125C40.0996 35.4254 37.5052 36.5 34.8 36.5H31.74C31.23 36.5 30.89 36.84 30.89 37.35C30.89 37.52 31.06 37.69 31.06 37.86C31.74 38.71 32.08 39.73 32.08 40.75C32.25 43.13 30.38 45 28 45ZM28 14.4C24.3931 14.4 20.9338 15.8329 18.3833 18.3833C15.8329 20.9338 14.4 24.3931 14.4 28C14.4 31.6069 15.8329 35.0662 18.3833 37.6167C20.9338 40.1671 24.3931 41.6 28 41.6C28.51 41.6 28.85 41.26 28.85 40.75C28.85 40.41 28.68 40.24 28.68 40.07C28 39.22 27.66 38.37 27.66 37.35C27.66 34.97 29.53 33.1 31.91 33.1H34.8C36.6035 33.1 38.3331 32.3836 39.6083 31.1083C40.8836 29.8331 41.6 28.1035 41.6 26.3C41.6 19.67 35.48 14.4 28 14.4ZM18.65 24.6C20.01 24.6 21.2 25.79 21.2 27.15C21.2 28.51 20.01 29.7 18.65 29.7C17.29 29.7 16.1 28.51 16.1 27.15C16.1 25.79 17.29 24.6 18.65 24.6ZM23.75 17.8C25.11 17.8 26.3 18.99 26.3 20.35C26.3 21.71 25.11 22.9 23.75 22.9C22.39 22.9 21.2 21.71 21.2 20.35C21.2 18.99 22.39 17.8 23.75 17.8ZM32.25 17.8C33.61 17.8 34.8 18.99 34.8 20.35C34.8 21.71 33.61 22.9 32.25 22.9C30.89 22.9 29.7 21.71 29.7 20.35C29.7 18.99 30.89 17.8 32.25 17.8ZM37.35 24.6C38.71 24.6 39.9 25.79 39.9 27.15C39.9 28.51 38.71 29.7 37.35 29.7C35.99 29.7 34.8 28.51 34.8 27.15C34.8 25.79 35.99 24.6 37.35 24.6Z" fill="black"/>
</g>
<defs>
<clipPath id="clip0_406_369">
<rect width="56" height="56" fill="white"/>
</clipPath>
</defs>
</svg>
